<svg id="10015.io" viewBox="0 0 480 480" xmlns="http://www.w3.org/2000/svg" xmlns:xlink="http://www.w3.org/1999/xlink" >
	<path fill="#009dbd" d="M413,270.5Q429,301,408,324Q387,347,363,362Q339,377,325.5,419.5Q312,462,276,461Q240,460,208.5,447.5Q177,435,138,434.5Q99,434,98.5,388.5Q98,343,65,325.5Q32,308,61,274Q90,240,91.5,216Q93,192,79,152.5Q65,113,99,102.5Q133,92,162.5,91.5Q192,91,216,72Q240,53,274,41Q308,29,342.5,40.5Q377,52,385.5,90Q394,128,387.5,161Q381,194,389,217Q397,240,413,270.5Z" />
</svg>