<?xml version="1.0" encoding="utf-8"?>
<!-- Generator: Adobe Illustrator 16.0.0, SVG Export Plug-In . SVG Version: 6.00 Build 0)  -->
<!DOCTYPE svg PUBLIC "-//W3C//DTD SVG 1.1//EN" "http://www.w3.org/Graphics/SVG/1.1/DTD/svg11.dtd">
<svg version="1.1" xmlns="http://www.w3.org/2000/svg" xmlns:xlink="http://www.w3.org/1999/xlink" x="0px" y="0px"
	 width="753.76px" height="753.76px" viewBox="0 0 753.76 753.76" enable-background="new 0 0 753.76 753.76" xml:space="preserve">
<g id="Layer_3">
	<rect fill-rule="evenodd" clip-rule="evenodd" fill="#FFDFAA" width="753.76" height="753.76"/>
</g>
<g id="Layer_2">
	<path fill-rule="evenodd" clip-rule="evenodd" fill="#E99C35" d="M264.708,178.281v76.251h9.083v-76.251H264.708z M475.801,178.281
		v76.251h9.083v-76.251H475.801z"/>
	<path fill-rule="evenodd" clip-rule="evenodd" fill="#D3831A" d="M273.791,181.905c-3.73,0.165-6.817,0.362-9.083,0.599v33.15
		c2.95,1.939,5.99,3.929,9.083,5.891V181.905z M475.801,182.999v38.495l9.083-2.169v-36.201L475.801,182.999z"/>
	<rect x="255.745" y="129.509" fill-rule="evenodd" clip-rule="evenodd" fill="#1C3540" width="242.271" height="81.501"/>
	<rect x="178.284" y="287.131" fill-rule="evenodd" clip-rule="evenodd" fill="#F27949" width="397.192" height="291.492"/>
	<path fill-rule="evenodd" clip-rule="evenodd" fill="#D8531D" d="M167.994,242.074V578.83h13.665V242.074H167.994z
		 M572.101,242.074V578.83h13.666V242.074H572.101z"/>
	<rect x="153.777" y="232.874" fill-rule="evenodd" clip-rule="evenodd" fill="#F27949" width="446.206" height="20.131"/>
	<rect x="317.826" y="382.633" fill-rule="evenodd" clip-rule="evenodd" fill="#2A1C16" width="118.108" height="195.99"/>
	<rect x="328.563" y="391.418" fill-rule="evenodd" clip-rule="evenodd" fill="#FBE2C4" width="96.634" height="135.804"/>
	<path fill-rule="evenodd" clip-rule="evenodd" fill="#35BC5E" d="M592.025,546.315c0,0-8.864-11.164-9.584-32.105
		c-0.72-20.942,3.94-27.773,4.214-33.342c0.274-5.569,8.654,8.745,8.374,24.438C594.749,521,587.534,538.596,592.025,546.315z"/>
	<path fill-rule="evenodd" clip-rule="evenodd" fill="#35BC5E" d="M588.214,552.535c0,0-1.115-22.79,7.172-42.233
		c8.287-19.443,25.818-41.437,25.818-41.437s-3.825,20.081-7.65,32.83c-3.825,12.75-18.487,49.086-22.312,53.867
		S588.214,552.535,588.214,552.535z"/>
	<path fill-rule="evenodd" clip-rule="evenodd" fill="#35BC5E" d="M585.187,546.638c0,0,2.55-14.024-6.694-32.83
		s-16.574-22.63-19.443-27.412s-3.506,11.793,4.144,25.499C570.843,525.601,585.505,537.713,585.187,546.638z"/>
	<polygon fill-rule="evenodd" clip-rule="evenodd" fill="#FFC245" points="560.793,533.827 615.658,533.827 609.306,578.874 
		567.531,578.874 	"/>
	<path fill-rule="evenodd" clip-rule="evenodd" fill="#F9B324" d="M566.273,535.892c9.362,3.021,38.532,6.851,47.688,9.971
		l1.698-12.035L566.273,535.892z"/>
	<path fill-rule="evenodd" clip-rule="evenodd" fill="#FFC245" d="M557.806,533.247c0-0.81,0.322-1.587,0.895-2.16
		c0.573-0.573,1.35-0.895,2.16-0.895h55.3c1.687,0,3.055,1.368,3.055,3.055v3.734c0,1.687-1.368,3.055-3.055,3.055h-55.3
		c-1.687,0-3.055-1.368-3.055-3.055V533.247z"/>
	<path fill-rule="evenodd" clip-rule="evenodd" fill="#FFFFFF" d="M336.625,190.096c-2.807,0-4.929-0.789-6.367-2.368
		c-1.438-1.614-2.158-3.912-2.158-6.894v-2.105h5.473v2.526c0,2.385,1,3.578,3,3.578c0.982,0,1.719-0.281,2.21-0.842
		c0.526-0.596,0.789-1.543,0.789-2.842c0-1.543-0.351-2.894-1.052-4.052c-0.702-1.193-2-2.614-3.894-4.262
		c-2.386-2.105-4.052-4-4.999-5.683c-0.947-1.719-1.421-3.648-1.421-5.789c0-2.912,0.737-5.157,2.21-6.735
		c1.474-1.614,3.614-2.421,6.42-2.421c2.771,0,4.859,0.807,6.262,2.421c1.438,1.579,2.157,3.858,2.157,6.841v1.526h-5.473v-1.895
		c0-1.263-0.246-2.175-0.737-2.736c-0.491-0.596-1.21-0.895-2.157-0.895c-1.929,0-2.894,1.175-2.894,3.526
		c0,1.333,0.351,2.578,1.052,3.736c0.737,1.158,2.052,2.561,3.947,4.21c2.421,2.105,4.087,4.017,4.999,5.736
		c0.912,1.719,1.368,3.736,1.368,6.051c0,3.017-0.754,5.333-2.262,6.946C341.624,189.29,339.466,190.096,336.625,190.096z"/>
	<polygon fill-rule="evenodd" clip-rule="evenodd" fill="#FFFFFF" points="353.2,157.997 347.149,157.997 347.149,152.735 
		365.04,152.735 365.04,157.997 358.989,157.997 358.989,189.57 353.2,189.57 	"/>
	<path fill-rule="evenodd" clip-rule="evenodd" fill="#FFFFFF" d="M375.986,190.096c-2.842,0-5.017-0.807-6.525-2.42
		c-1.509-1.614-2.263-3.894-2.263-6.841V161.47c0-2.947,0.754-5.228,2.263-6.841c1.508-1.614,3.684-2.421,6.525-2.421
		s5.016,0.807,6.525,2.421c1.509,1.613,2.263,3.894,2.263,6.841v19.365c0,2.947-0.754,5.227-2.263,6.841
		S378.827,190.096,375.986,190.096z M375.986,184.834c2,0,2.999-1.21,2.999-3.631v-20.102c0-2.42-1-3.631-2.999-3.631
		c-2,0-3,1.21-3,3.631v20.102C372.986,183.624,373.986,184.834,375.986,184.834z"/>
	<path fill-rule="evenodd" clip-rule="evenodd" fill="#FFFFFF" d="M388.667,152.735h8.577c2.982,0,5.157,0.702,6.525,2.104
		c1.368,1.369,2.052,3.491,2.052,6.368v2.263c0,3.824-1.263,6.244-3.789,7.262v0.105c1.403,0.421,2.385,1.281,2.947,2.579
		c0.596,1.298,0.894,3.035,0.894,5.209v6.473c0,1.053,0.035,1.912,0.105,2.579c0.07,0.631,0.246,1.263,0.526,1.894h-5.894
		c-0.21-0.596-0.351-1.157-0.421-1.684c-0.07-0.526-0.105-1.474-0.105-2.842v-6.735c0-1.684-0.281-2.859-0.842-3.526
		c-0.526-0.667-1.456-1-2.789-1h-2v15.786h-5.788V152.735z M396.561,168.521c1.158,0,2.017-0.298,2.579-0.895
		c0.596-0.597,0.895-1.596,0.895-3v-2.842c0-1.333-0.246-2.298-0.737-2.894c-0.456-0.597-1.193-0.895-2.21-0.895h-2.631v10.524
		H396.561z"/>
	<polygon fill-rule="evenodd" clip-rule="evenodd" fill="#FFFFFF" points="409.874,152.735 425.661,152.735 425.661,157.997 
		415.662,157.997 415.662,167.732 423.608,167.732 423.608,172.994 415.662,172.994 415.662,184.308 425.661,184.308 
		425.661,189.57 409.874,189.57 	"/>
	<polygon fill-rule="evenodd" clip-rule="evenodd" fill="#217F33" points="191.429,251.222 243.035,251.222 226.804,339.659 
		166.775,339.659 	"/>
	<path fill-rule="evenodd" clip-rule="evenodd" fill="#1B6A2A" d="M226.804,333.17v0.481c0.002-0.04,0.002-0.08,0.004-0.12
		C226.807,333.411,226.807,333.291,226.804,333.17z M166.775,339.659c2.83,14.397,15.769,24.75,30.035,24.759
		c14.266-0.009,27.163-10.362,29.994-24.759H166.775z"/>
	<polygon fill-rule="evenodd" clip-rule="evenodd" fill="#FFEFEF" points="243.035,251.222 297.928,251.222 286.833,339.659 
		226.804,339.659 	"/>
	<path fill-rule="evenodd" clip-rule="evenodd" fill="#F4E1E1" d="M286.833,333.17v0.481c0.002-0.04,0.002-0.08,0.004-0.12
		C286.836,333.411,286.836,333.291,286.833,333.17z M226.804,339.659c2.83,14.397,15.769,24.75,30.035,24.759
		c14.266-0.009,27.163-10.362,29.994-24.759H226.804z"/>
	<polygon fill-rule="evenodd" clip-rule="evenodd" fill="#217F33" points="297.928,251.222 353.026,251.222 346.863,339.659 
		286.833,339.659 	"/>
	<path fill-rule="evenodd" clip-rule="evenodd" fill="#1B6A2A" d="M346.863,333.17v0.481c0.002-0.04,0.002-0.08,0.004-0.12
		C346.865,333.411,346.865,333.291,346.863,333.17z M286.833,339.659c2.83,14.397,15.769,24.75,30.035,24.759
		c14.266-0.009,27.163-10.362,29.994-24.759H286.833z"/>
	<polygon fill-rule="evenodd" clip-rule="evenodd" fill="#FFEFEF" points="353.026,251.222 400.317,251.222 406.892,339.659 
		346.863,339.659 	"/>
	<path fill-rule="evenodd" clip-rule="evenodd" fill="#F4E1E1" d="M406.892,333.17v0.481c0.002-0.04,0.002-0.08,0.004-0.12
		C406.894,333.411,406.894,333.291,406.892,333.17z M346.863,339.659c2.83,14.397,15.769,24.75,30.035,24.759
		c14.266-0.009,27.163-10.362,29.994-24.759H346.863z"/>
	<polygon fill-rule="evenodd" clip-rule="evenodd" fill="#217F33" points="400.317,251.222 454.388,251.222 466.921,339.659 
		406.892,339.659 	"/>
	<path fill-rule="evenodd" clip-rule="evenodd" fill="#1B6A2A" d="M466.921,333.17v0.481c0.002-0.04,0.002-0.08,0.004-0.12
		C466.923,333.411,466.923,333.291,466.921,333.17z M406.892,339.659c2.83,14.397,15.769,24.75,30.035,24.759
		c14.266-0.009,27.163-10.362,29.994-24.759H406.892z"/>
	<polygon fill-rule="evenodd" clip-rule="evenodd" fill="#FFEFEF" points="454.388,251.222 508.049,251.222 526.95,339.659 
		466.921,339.659 	"/>
	<path fill-rule="evenodd" clip-rule="evenodd" fill="#F4E1E1" d="M526.95,333.17v0.481c0.002-0.04,0.002-0.08,0.004-0.12
		C526.952,333.411,526.952,333.291,526.95,333.17z M466.921,339.659c2.83,14.397,15.769,24.75,30.035,24.759
		c14.266-0.009,27.163-10.362,29.994-24.759H466.921z"/>
	<polygon fill-rule="evenodd" clip-rule="evenodd" fill="#217F33" points="508.049,251.222 565.407,251.222 586.979,339.659 
		526.95,339.659 	"/>
	<path fill-rule="evenodd" clip-rule="evenodd" fill="#1B6A2A" d="M586.979,333.17v0.481c0-0.04,0.006-0.08,0.006-0.12
		C586.984,333.411,586.984,333.291,586.979,333.17z M526.95,339.659c2.83,14.397,15.769,24.75,30.036,24.759
		c14.266-0.009,27.163-10.362,29.993-24.759H526.95z"/>
	<polygon fill-rule="evenodd" clip-rule="evenodd" fill="#FFEFEF" points="149.069,251.222 191.429,251.222 166.775,339.659 
		106.746,339.659 	"/>
	<path fill-rule="evenodd" clip-rule="evenodd" fill="#F4E1E1" d="M166.775,333.17v0.481c0.002-0.04,0.002-0.08,0.004-0.12
		C166.778,333.411,166.778,333.291,166.775,333.17z M106.746,339.659c2.83,14.397,15.769,24.75,30.035,24.759
		c14.266-0.009,27.163-10.362,29.994-24.759H106.746z"/>
	<polygon fill-rule="evenodd" clip-rule="evenodd" fill="#FFEFEF" points="565.407,251.222 602.22,251.222 647.008,339.659 
		586.979,339.659 	"/>
	<path fill-rule="evenodd" clip-rule="evenodd" fill="#F4E1E1" d="M647.008,333.17v0.481c0-0.04,0.006-0.08,0.006-0.12
		C647.014,333.411,647.014,333.291,647.008,333.17z M586.979,339.659c2.83,14.397,15.769,24.75,30.035,24.759
		c14.266-0.009,27.163-10.362,29.994-24.759H586.979z"/>
	<rect x="323.477" y="419.67" fill-rule="evenodd" clip-rule="evenodd" fill="#2A1C16" width="106.882" height="2.515"/>
	<rect x="324.734" y="403.953" fill-rule="evenodd" clip-rule="evenodd" fill="#2A1C16" width="102.481" height="1.257"/>
	<rect x="340.452" y="386.977" fill-rule="evenodd" clip-rule="evenodd" fill="#2A1C16" width="1.886" height="33.637"/>
	<rect x="376.409" y="386.034" fill-rule="evenodd" clip-rule="evenodd" fill="#2A1C16" width="0.943" height="34.58"/>
	<rect x="410.607" y="387.292" fill-rule="evenodd" clip-rule="evenodd" fill="#2A1C16" width="1.886" height="33.322"/>
	<path fill-rule="evenodd" clip-rule="evenodd" fill="#2A1C16" d="M330.392,480.342c0-0.695,0.563-1.258,1.258-1.258l0,0
		c0.333,0,0.653,0.133,0.889,0.369c0.236,0.236,0.368,0.556,0.368,0.889v11.317c0,0.333-0.133,0.653-0.368,0.889
		c-0.236,0.236-0.555,0.368-0.889,0.368l0,0c-0.695,0-1.258-0.563-1.258-1.257V480.342z"/>
	<rect x="198.032" y="381.935" fill-rule="evenodd" clip-rule="evenodd" fill="#FBE2C4" width="96.634" height="145.287"/>
	<path fill-rule="evenodd" clip-rule="evenodd" fill="#2A1C16" d="M194.389,525.569c0-0.694,0.563-1.258,1.257-1.258h101.406
		c0.694,0,1.258,0.563,1.258,1.258v2.53c0,0.694-0.563,1.257-1.258,1.257H195.646c-0.694,0-1.257-0.563-1.257-1.257V525.569z"/>
	<path fill-rule="evenodd" clip-rule="evenodd" fill="#2A1C16" d="M194.389,379.721c0-0.695,0.563-1.258,1.257-1.258h101.406
		c0.694,0,1.258,0.563,1.258,1.258v2.529c0,0.695-0.563,1.258-1.258,1.258H195.646c-0.694,0-1.257-0.563-1.257-1.258V379.721z"/>
	<path fill-rule="evenodd" clip-rule="evenodd" fill="#FCEAD5" d="M294.666,389.644l-96.634,67.62v21.794l96.634-68.993V389.644z
		 M294.666,418.454l-96.634,69.704v10.172l96.634-71.748V418.454z"/>
	<path fill-rule="evenodd" clip-rule="evenodd" fill="#2A1C16" d="M207.745,381.935v15.831h-9.713v1.628h9.713v13.683h-9.713v1.629
		h96.634v-1.629h-10.039v-13.683h10.039v-1.628h-10.039v-15.831h-2.28v15.831h-34.857v-15.831h-2.281v15.831h-35.183v-15.831
		H207.745z M210.026,399.394h35.183v13.683h-35.183V399.394z M247.489,399.394h34.857v13.683h-34.857V399.394z"/>
	<rect x="456.981" y="381.935" fill-rule="evenodd" clip-rule="evenodd" fill="#FBE2C4" width="96.634" height="145.287"/>
	<path fill-rule="evenodd" clip-rule="evenodd" fill="#2A1C16" d="M453.338,525.569c0-0.694,0.563-1.258,1.258-1.258h101.406
		c0.333,0,0.653,0.133,0.889,0.369s0.368,0.556,0.368,0.889v2.53c0,0.333-0.133,0.653-0.368,0.889s-0.556,0.368-0.889,0.368H454.596
		c-0.695,0-1.258-0.563-1.258-1.257V525.569z"/>
	<path fill-rule="evenodd" clip-rule="evenodd" fill="#2A1C16" d="M453.338,379.721c0-0.695,0.563-1.258,1.258-1.258h101.406
		c0.333,0,0.653,0.133,0.889,0.369s0.368,0.555,0.368,0.889v2.529c0,0.334-0.133,0.654-0.368,0.89
		c-0.236,0.235-0.556,0.368-0.889,0.368H454.596c-0.695,0-1.258-0.563-1.258-1.258V379.721z"/>
	<path fill-rule="evenodd" clip-rule="evenodd" fill="#FCEAD5" d="M553.616,400.68l-96.634,67.62v21.909l96.634-68.993V400.68z
		 M553.616,429.664l-96.634,69.704v10.343l96.634-71.748V429.664z"/>
	<path fill-rule="evenodd" clip-rule="evenodd" fill="#2A1C16" d="M466.695,381.935v15.831h-9.713v1.628h9.713v13.683h-9.713v1.629
		h96.634v-1.629h-10.039v-13.683h10.039v-1.628h-10.039v-15.831h-2.28v15.831h-34.857v-15.831h-2.281v15.831h-35.183v-15.831
		H466.695z M468.975,399.394h35.183v13.683h-35.183V399.394z M506.439,399.394h34.857v13.683h-34.857V399.394z"/>
	<path fill-rule="evenodd" clip-rule="evenodd" fill="#FFC245" d="M378.557,438.772l-22.784,16.932h-8.121
		c-1.281,0-2.312,1.031-2.312,2.312v29.649c0,1.281,1.031,2.312,2.312,2.312h61.827c1.281,0,2.312-1.031,2.312-2.312v-29.649
		c0-1.281-1.031-2.312-2.312-2.312h-8.432L378.557,438.772z M378.551,440.108l20.718,15.597h-41.705L378.551,440.108z"/>
	<path fill-rule="evenodd" clip-rule="evenodd" fill="#1A1A1A" d="M362.274,469.892c-0.033,0-0.053-0.021-0.061-0.062l-1.453-8.457
		c-0.008-0.033,0.004-0.049,0.037-0.049h1.379c0.033,0,0.053,0.017,0.061,0.049l0.788,5.564l0.812-5.564
		c0.009-0.033,0.033-0.049,0.074-0.049h1.108c0.033,0,0.053,0.017,0.061,0.049l0.8,5.564l0.8-5.564
		c0.008-0.033,0.029-0.049,0.061-0.049h1.366c0.041,0,0.057,0.017,0.049,0.049l-1.465,8.457c-0.008,0.016-0.021,0.033-0.037,0.049
		c-0.017,0.008-0.025,0.012-0.025,0.012h-1.49c-0.025,0-0.045-0.021-0.061-0.062l-0.628-4.419l-0.628,4.419
		c-0.008,0.041-0.029,0.062-0.061,0.062H362.274z"/>
	<path fill-rule="evenodd" clip-rule="evenodd" fill="#1A1A1A" d="M369.924,469.892c-0.033,0-0.05-0.021-0.05-0.062l0.012-8.457
		c0-0.033,0.017-0.049,0.05-0.049h3.951c0.033,0,0.05,0.021,0.05,0.062v1.378c0,0.033-0.016,0.049-0.05,0.049h-2.523v1.92h2.523
		c0.033,0,0.05,0.017,0.05,0.049l0.012,1.391c0,0.033-0.016,0.049-0.05,0.049h-2.536v2.154h2.536c0.033,0,0.05,0.021,0.05,0.062
		v1.403c0,0.033-0.016,0.049-0.05,0.049H369.924z"/>
	<path fill-rule="evenodd" clip-rule="evenodd" fill="#1A1A1A" d="M378.711,469.831l1.526-8.457
		c0.008-0.033,0.029-0.049,0.061-0.049h1.785c0.033,0,0.053,0.017,0.061,0.049l1.465,8.457c0.008,0.041-0.008,0.062-0.05,0.062
		h-1.366c-0.033,0-0.053-0.021-0.062-0.062l-0.135-0.898h-1.674l-0.136,0.898c-0.008,0.041-0.029,0.062-0.061,0.062h-1.366
		C378.727,469.892,378.71,469.872,378.711,469.831z M380.57,467.615h1.182l-0.505-3.458l-0.074-0.456l-0.049,0.456L380.57,467.615z"
		/>
	<path fill-rule="evenodd" clip-rule="evenodd" fill="#1A1A1A" d="M385.425,469.892c-0.033,0-0.05-0.021-0.05-0.062l0.025-8.457
		c0-0.033,0.017-0.049,0.05-0.049h2.486c0.443,0,0.85,0.111,1.219,0.333c0.377,0.213,0.677,0.504,0.898,0.874
		c0.222,0.361,0.333,0.771,0.333,1.231c0,0.304-0.045,0.578-0.135,0.825c-0.09,0.238-0.197,0.443-0.32,0.615
		c-0.123,0.164-0.234,0.287-0.332,0.37c0.443,0.492,0.665,1.071,0.665,1.735l0.012,2.523c0,0.041-0.021,0.062-0.061,0.062h-1.391
		c-0.033,0-0.05-0.012-0.05-0.037v-2.548c0-0.295-0.107-0.55-0.32-0.763c-0.205-0.222-0.459-0.333-0.763-0.333h-0.813l-0.012,3.619
		c0,0.041-0.016,0.062-0.049,0.062H385.425z M386.877,464.734h1.059c0.254,0,0.48-0.094,0.677-0.283
		c0.197-0.189,0.295-0.419,0.295-0.689c0-0.263-0.098-0.488-0.295-0.677c-0.189-0.188-0.414-0.283-0.677-0.283h-1.059V464.734z"/>
	<path fill-rule="evenodd" clip-rule="evenodd" fill="#1A1A1A" d="M392.348,469.892c-0.033,0-0.049-0.021-0.049-0.062l0.012-8.457
		c0-0.033,0.016-0.049,0.049-0.049h3.951c0.032,0,0.049,0.021,0.049,0.062v1.378c0,0.033-0.016,0.049-0.049,0.049h-2.523v1.92h2.523
		c0.032,0,0.049,0.017,0.049,0.049l0.012,1.391c0,0.033-0.016,0.049-0.049,0.049h-2.536v2.154h2.536
		c0.032,0,0.049,0.021,0.049,0.062v1.403c0,0.033-0.016,0.049-0.049,0.049H392.348z"/>
	<path fill-rule="evenodd" clip-rule="evenodd" fill="#1A1A1A" d="M366.053,484.653c-0.571,0-1.094-0.143-1.57-0.428
		c-0.465-0.296-0.84-0.682-1.126-1.157c-0.285-0.486-0.428-1.02-0.428-1.601l0.016-5.026c0-0.581,0.137-1.11,0.412-1.585
		c0.285-0.476,0.666-0.856,1.142-1.142c0.476-0.285,0.994-0.428,1.554-0.428c0.571,0,1.089,0.143,1.554,0.428
		c0.465,0.286,0.835,0.666,1.11,1.142c0.286,0.476,0.428,1.004,0.428,1.585l0.016,5.026c0,0.581-0.143,1.115-0.428,1.601
		c-0.275,0.476-0.65,0.861-1.125,1.157C367.143,484.51,366.625,484.653,366.053,484.653z M366.053,482.734
		c0.317,0,0.592-0.126,0.824-0.38c0.243-0.264,0.365-0.56,0.365-0.888l-0.016-5.026c0-0.349-0.111-0.645-0.333-0.888
		s-0.502-0.365-0.84-0.365c-0.328,0-0.608,0.122-0.84,0.365c-0.232,0.232-0.349,0.528-0.349,0.888v5.026
		c0,0.349,0.116,0.65,0.349,0.903C365.446,482.613,365.726,482.734,366.053,482.734z"/>
	<path fill-rule="evenodd" clip-rule="evenodd" fill="#1A1A1A" d="M371.721,484.495c-0.053,0-0.079-0.027-0.079-0.08l0.031-10.892
		c0-0.042,0.021-0.063,0.063-0.063h3.044c0.972,0,1.739,0.296,2.299,0.888c0.571,0.592,0.856,1.396,0.856,2.41
		c0,0.75-0.148,1.4-0.444,1.95c-0.296,0.549-0.682,0.972-1.157,1.268s-0.994,0.444-1.554,0.444h-1.205v3.996
		c0,0.053-0.026,0.08-0.079,0.08H371.721z M373.576,478.501h1.205c0.338,0,0.629-0.159,0.872-0.476
		c0.254-0.328,0.38-0.75,0.38-1.268c0-0.412-0.111-0.75-0.333-1.015c-0.222-0.265-0.529-0.396-0.92-0.396l-1.205,0.016V478.501z"/>
	<path fill-rule="evenodd" clip-rule="evenodd" fill="#1A1A1A" d="M380.353,484.495c-0.042,0-0.063-0.027-0.063-0.08l0.016-10.892
		c0-0.042,0.021-0.063,0.063-0.063h5.09c0.042,0,0.063,0.026,0.063,0.079v1.776c0,0.042-0.021,0.063-0.063,0.063h-3.25v2.473h3.25
		c0.042,0,0.063,0.021,0.063,0.063l0.016,1.792c0,0.042-0.021,0.063-0.063,0.063h-3.266v2.775h3.266
		c0.042,0,0.063,0.026,0.063,0.079v1.808c0,0.042-0.021,0.063-0.063,0.063H380.353z"/>
	<path fill-rule="evenodd" clip-rule="evenodd" fill="#1A1A1A" d="M388.367,484.495c-0.084,0-0.127-0.037-0.127-0.111l-0.016-10.797
		c0-0.084,0.042-0.126,0.127-0.126h1.427l2.679,6.247l-0.079-6.12c0-0.084,0.048-0.126,0.143-0.126h1.57
		c0.063,0,0.095,0.042,0.095,0.126l0.016,10.813c0,0.063-0.026,0.095-0.079,0.095h-1.395l-2.743-5.835l0.111,5.708
		c0,0.084-0.047,0.127-0.143,0.127H388.367z"/>
	<path fill-rule="evenodd" clip-rule="evenodd" fill="#35BC5E" d="M163.192,546.315c0,0,8.864-11.164,9.584-32.105
		c0.72-20.942-3.94-27.773-4.214-33.342c-0.274-5.569-8.655,8.745-8.375,24.438C160.468,521,167.683,538.596,163.192,546.315z"/>
	<path fill-rule="evenodd" clip-rule="evenodd" fill="#35BC5E" d="M167.003,552.535c0,0,1.115-22.79-7.172-42.233
		c-8.287-19.443-25.818-41.437-25.818-41.437s3.825,20.081,7.65,32.83c3.825,12.75,18.487,49.086,22.312,53.867
		S167.003,552.535,167.003,552.535z"/>
	<path fill-rule="evenodd" clip-rule="evenodd" fill="#35BC5E" d="M170.031,546.638c0,0-2.55-14.024,6.693-32.83
		s16.574-22.63,19.443-27.412s3.506,11.793-4.144,25.499C184.374,525.601,169.712,537.713,170.031,546.638z"/>
	<polygon fill-rule="evenodd" clip-rule="evenodd" fill="#FFC245" points="194.424,533.827 139.559,533.827 145.911,578.874 
		187.686,578.874 	"/>
	<path fill-rule="evenodd" clip-rule="evenodd" fill="#F9B324" d="M188.944,535.892c-9.362,3.021-38.532,6.851-47.688,9.971
		l-1.697-12.035L188.944,535.892z"/>
	<path fill-rule="evenodd" clip-rule="evenodd" fill="#FFC245" d="M197.411,533.247c0-0.81-0.322-1.587-0.895-2.16
		c-0.573-0.573-1.35-0.895-2.16-0.895h-55.3c-0.81,0-1.587,0.322-2.16,0.895c-0.573,0.573-0.895,1.35-0.895,2.16v3.734
		c0,1.687,1.368,3.055,3.055,3.055h55.3c1.687,0,3.055-1.368,3.055-3.055V533.247z"/>
	<path fill-rule="evenodd" clip-rule="evenodd" fill="#D8531D" d="M86.641,580.688c0-2.225,0.884-4.359,2.457-5.932
		c1.573-1.573,3.707-2.458,5.932-2.458h563.7c2.225,0,4.359,0.884,5.932,2.458c1.573,1.573,2.457,3.707,2.457,5.932l0,0
		c0,2.225-0.884,4.359-2.457,5.932s-3.707,2.457-5.932,2.457H95.03C90.397,589.078,86.641,585.322,86.641,580.688z"/>
</g>
</svg>
